<mxfile host="Electron" modified="2023-11-25T13:01:16.206Z" agent="Mozilla/5.0 (Windows NT 10.0; Win64; x64) AppleWebKit/537.36 (KHTML, like Gecko) draw.io/22.1.2 Chrome/114.0.5735.289 Electron/25.9.4 Safari/537.36" etag="trWAHc4_0ON-rRnzrEOW" version="22.1.2" type="device">
  <diagram name="Page-1" id="tu4VE9dXYG4_uWjaws7-">
    <mxGraphModel dx="2284" dy="1116" grid="0" gridSize="10" guides="1" tooltips="1" connect="1" arrows="1" fold="1" page="0" pageScale="1" pageWidth="850" pageHeight="1100" math="0" shadow="0">
      <root>
        <mxCell id="0" />
        <mxCell id="1" parent="0" />
        <mxCell id="lNQzoHdhUG-K7HCVNhrf-1" value="" style="rounded=0;whiteSpace=wrap;html=1;" parent="1" vertex="1">
          <mxGeometry x="-78" y="461" width="200" height="70" as="geometry" />
        </mxCell>
        <mxCell id="lNQzoHdhUG-K7HCVNhrf-2" value="&lt;font style=&quot;font-size: 12px;&quot;&gt;IN&lt;/font&gt;" style="text;html=1;strokeColor=none;fillColor=none;align=center;verticalAlign=middle;whiteSpace=wrap;rounded=0;" parent="1" vertex="1">
          <mxGeometry x="-73" y="469" width="20" height="20" as="geometry" />
        </mxCell>
        <mxCell id="lNQzoHdhUG-K7HCVNhrf-4" value="&lt;font style=&quot;font-size: 12px;&quot;&gt;CT&lt;/font&gt;" style="text;html=1;strokeColor=none;fillColor=none;align=center;verticalAlign=middle;whiteSpace=wrap;rounded=0;" parent="1" vertex="1">
          <mxGeometry x="-73" y="489" width="20" height="20" as="geometry" />
        </mxCell>
        <mxCell id="lNQzoHdhUG-K7HCVNhrf-5" value="REG P" style="text;html=1;strokeColor=default;fillColor=none;align=center;verticalAlign=middle;whiteSpace=wrap;rounded=0;dashed=1;" parent="1" vertex="1">
          <mxGeometry x="-30.5" y="481" width="105" height="30" as="geometry" />
        </mxCell>
        <mxCell id="lNQzoHdhUG-K7HCVNhrf-6" value="&lt;font style=&quot;font-size: 8px;&quot;&gt;Clk&lt;/font&gt;" style="text;html=1;strokeColor=none;fillColor=none;align=center;verticalAlign=middle;whiteSpace=wrap;rounded=0;" parent="1" vertex="1">
          <mxGeometry x="-73" y="509" width="20" height="15" as="geometry" />
        </mxCell>
        <mxCell id="lNQzoHdhUG-K7HCVNhrf-11" value="" style="rounded=0;whiteSpace=wrap;html=1;" parent="1" vertex="1">
          <mxGeometry x="6" y="615" width="200" height="70" as="geometry" />
        </mxCell>
        <mxCell id="lNQzoHdhUG-K7HCVNhrf-12" value="&lt;font style=&quot;font-size: 12px;&quot;&gt;IN&lt;/font&gt;" style="text;html=1;strokeColor=none;fillColor=none;align=center;verticalAlign=middle;whiteSpace=wrap;rounded=0;" parent="1" vertex="1">
          <mxGeometry x="11" y="623" width="20" height="20" as="geometry" />
        </mxCell>
        <mxCell id="lNQzoHdhUG-K7HCVNhrf-101" style="edgeStyle=orthogonalEdgeStyle;rounded=0;orthogonalLoop=1;jettySize=auto;html=1;exitX=1;exitY=0.5;exitDx=0;exitDy=0;entryX=0;entryY=0.5;entryDx=0;entryDy=0;strokeColor=#6EE723;strokeWidth=2;" parent="1" source="lNQzoHdhUG-K7HCVNhrf-13" target="lNQzoHdhUG-K7HCVNhrf-69" edge="1">
          <mxGeometry relative="1" as="geometry">
            <Array as="points">
              <mxPoint x="997" y="640" />
              <mxPoint x="997" y="499" />
            </Array>
          </mxGeometry>
        </mxCell>
        <mxCell id="lNQzoHdhUG-K7HCVNhrf-13" value="&lt;font style=&quot;font-size: 12px;&quot;&gt;OUT&lt;/font&gt;" style="text;html=1;strokeColor=none;fillColor=none;align=center;verticalAlign=middle;whiteSpace=wrap;rounded=0;" parent="1" vertex="1">
          <mxGeometry x="168" y="629.5" width="38" height="20" as="geometry" />
        </mxCell>
        <mxCell id="lNQzoHdhUG-K7HCVNhrf-14" value="&lt;font style=&quot;font-size: 12px;&quot;&gt;CT&lt;/font&gt;" style="text;html=1;strokeColor=none;fillColor=none;align=center;verticalAlign=middle;whiteSpace=wrap;rounded=0;" parent="1" vertex="1">
          <mxGeometry x="11" y="643" width="20" height="20" as="geometry" />
        </mxCell>
        <mxCell id="lNQzoHdhUG-K7HCVNhrf-15" value="REG Q" style="text;html=1;strokeColor=default;fillColor=none;align=center;verticalAlign=middle;whiteSpace=wrap;rounded=0;dashed=1;" parent="1" vertex="1">
          <mxGeometry x="53.5" y="635" width="105" height="30" as="geometry" />
        </mxCell>
        <mxCell id="lNQzoHdhUG-K7HCVNhrf-16" value="&lt;font style=&quot;font-size: 8px;&quot;&gt;Clk&lt;/font&gt;" style="text;html=1;strokeColor=none;fillColor=none;align=center;verticalAlign=middle;whiteSpace=wrap;rounded=0;" parent="1" vertex="1">
          <mxGeometry x="11" y="663" width="20" height="15" as="geometry" />
        </mxCell>
        <mxCell id="lNQzoHdhUG-K7HCVNhrf-105" style="edgeStyle=orthogonalEdgeStyle;rounded=0;orthogonalLoop=1;jettySize=auto;html=1;exitX=0.5;exitY=0;exitDx=0;exitDy=0;entryX=1;entryY=0.5;entryDx=0;entryDy=0;strokeColor=#b85450;strokeWidth=2;fillColor=#f8cecc;" parent="1" source="lNQzoHdhUG-K7HCVNhrf-110" target="lNQzoHdhUG-K7HCVNhrf-77" edge="1">
          <mxGeometry relative="1" as="geometry">
            <Array as="points">
              <mxPoint x="513" y="665" />
              <mxPoint x="513" y="598" />
              <mxPoint x="658" y="598" />
            </Array>
          </mxGeometry>
        </mxCell>
        <mxCell id="lNQzoHdhUG-K7HCVNhrf-116" style="edgeStyle=orthogonalEdgeStyle;rounded=0;orthogonalLoop=1;jettySize=auto;html=1;exitX=0;exitY=0.5;exitDx=0;exitDy=0;entryX=0;entryY=0.5;entryDx=0;entryDy=0;fillColor=#6d8764;strokeColor=#6832FB;strokeWidth=2;" parent="1" source="lNQzoHdhUG-K7HCVNhrf-18" target="lNQzoHdhUG-K7HCVNhrf-42" edge="1">
          <mxGeometry relative="1" as="geometry" />
        </mxCell>
        <mxCell id="lNQzoHdhUG-K7HCVNhrf-119" style="edgeStyle=orthogonalEdgeStyle;rounded=0;orthogonalLoop=1;jettySize=auto;html=1;exitX=0.25;exitY=1;exitDx=0;exitDy=0;entryX=0;entryY=0.5;entryDx=0;entryDy=0;fillColor=#a20025;strokeColor=#ec3c3c;strokeWidth=2;" parent="1" source="lNQzoHdhUG-K7HCVNhrf-18" target="lNQzoHdhUG-K7HCVNhrf-14" edge="1">
          <mxGeometry relative="1" as="geometry" />
        </mxCell>
        <mxCell id="lNQzoHdhUG-K7HCVNhrf-120" style="edgeStyle=orthogonalEdgeStyle;rounded=0;orthogonalLoop=1;jettySize=auto;html=1;exitX=0.5;exitY=1;exitDx=0;exitDy=0;entryX=0;entryY=0.5;entryDx=0;entryDy=0;strokeColor=#EC3C3C;strokeWidth=2;" parent="1" source="lNQzoHdhUG-K7HCVNhrf-18" target="lNQzoHdhUG-K7HCVNhrf-1" edge="1">
          <mxGeometry relative="1" as="geometry">
            <Array as="points">
              <mxPoint x="571" y="863" />
              <mxPoint x="-98" y="863" />
              <mxPoint x="-98" y="496" />
            </Array>
          </mxGeometry>
        </mxCell>
        <mxCell id="GA_d8-ZdceQXuGu5nzfN-9" style="edgeStyle=orthogonalEdgeStyle;rounded=0;orthogonalLoop=1;jettySize=auto;html=1;exitX=0.75;exitY=1;exitDx=0;exitDy=0;entryX=0;entryY=0.5;entryDx=0;entryDy=0;strokeColor=#EC3C3C;strokeWidth=2;" parent="1" source="lNQzoHdhUG-K7HCVNhrf-18" target="GA_d8-ZdceQXuGu5nzfN-1" edge="1">
          <mxGeometry relative="1" as="geometry">
            <Array as="points">
              <mxPoint x="629" y="809" />
              <mxPoint x="716" y="809" />
              <mxPoint x="716" y="472" />
            </Array>
          </mxGeometry>
        </mxCell>
        <mxCell id="lNQzoHdhUG-K7HCVNhrf-18" value="FSM SIstem" style="rounded=0;whiteSpace=wrap;html=1;" parent="1" vertex="1">
          <mxGeometry x="454" y="665" width="234" height="124" as="geometry" />
        </mxCell>
        <mxCell id="lNQzoHdhUG-K7HCVNhrf-25" value="" style="rounded=0;whiteSpace=wrap;html=1;" parent="1" vertex="1">
          <mxGeometry x="1032" y="461" width="220" height="101" as="geometry" />
        </mxCell>
        <mxCell id="lNQzoHdhUG-K7HCVNhrf-26" value="Clk" style="text;html=1;strokeColor=none;fillColor=none;align=left;verticalAlign=middle;whiteSpace=wrap;rounded=0;fontSize=8;" parent="1" vertex="1">
          <mxGeometry x="1042" y="522" width="60" height="30" as="geometry" />
        </mxCell>
        <mxCell id="lNQzoHdhUG-K7HCVNhrf-27" value="En" style="text;html=1;strokeColor=none;fillColor=none;align=left;verticalAlign=middle;whiteSpace=wrap;rounded=0;" parent="1" vertex="1">
          <mxGeometry x="1032" y="505" width="23" height="30" as="geometry" />
        </mxCell>
        <mxCell id="lNQzoHdhUG-K7HCVNhrf-28" value="&amp;nbsp;A" style="text;html=1;strokeColor=none;fillColor=none;align=left;verticalAlign=middle;whiteSpace=wrap;rounded=0;" parent="1" vertex="1">
          <mxGeometry x="1032" y="461" width="29" height="30" as="geometry" />
        </mxCell>
        <mxCell id="lNQzoHdhUG-K7HCVNhrf-30" value="ARS REGISTER" style="rounded=0;whiteSpace=wrap;html=1;dashed=1;" parent="1" vertex="1">
          <mxGeometry x="1082" y="491.5" width="120" height="40" as="geometry" />
        </mxCell>
        <mxCell id="lNQzoHdhUG-K7HCVNhrf-84" style="edgeStyle=orthogonalEdgeStyle;rounded=0;orthogonalLoop=1;jettySize=auto;html=1;exitX=1;exitY=0.5;exitDx=0;exitDy=0;entryX=1;entryY=0.75;entryDx=0;entryDy=0;strokeColor=#6C8EBF;strokeWidth=2;" parent="1" source="lNQzoHdhUG-K7HCVNhrf-32" target="lNQzoHdhUG-K7HCVNhrf-78" edge="1">
          <mxGeometry relative="1" as="geometry">
            <Array as="points">
              <mxPoint x="1269" y="476" />
              <mxPoint x="1269" y="406" />
              <mxPoint x="629" y="406" />
              <mxPoint x="629" y="445" />
            </Array>
          </mxGeometry>
        </mxCell>
        <mxCell id="lNQzoHdhUG-K7HCVNhrf-123" style="edgeStyle=orthogonalEdgeStyle;rounded=0;orthogonalLoop=1;jettySize=auto;html=1;exitX=1;exitY=0.5;exitDx=0;exitDy=0;entryX=0;entryY=0.25;entryDx=0;entryDy=0;strokeColor=#6C8EBF;strokeWidth=2;" parent="1" source="lNQzoHdhUG-K7HCVNhrf-32" target="lNQzoHdhUG-K7HCVNhrf-122" edge="1">
          <mxGeometry relative="1" as="geometry">
            <Array as="points">
              <mxPoint x="1316" y="476" />
              <mxPoint x="1316" y="763" />
              <mxPoint x="1097" y="763" />
              <mxPoint x="1097" y="804" />
            </Array>
          </mxGeometry>
        </mxCell>
        <mxCell id="lNQzoHdhUG-K7HCVNhrf-32" value="A*" style="text;html=1;strokeColor=none;fillColor=none;align=right;verticalAlign=middle;whiteSpace=wrap;rounded=0;" parent="1" vertex="1">
          <mxGeometry x="1223" y="461" width="26.5" height="30" as="geometry" />
        </mxCell>
        <mxCell id="lNQzoHdhUG-K7HCVNhrf-33" value="Rst" style="text;html=1;strokeColor=none;fillColor=none;align=center;verticalAlign=middle;whiteSpace=wrap;rounded=0;fontSize=8;" parent="1" vertex="1">
          <mxGeometry x="1037.5" y="544" width="27.5" height="14" as="geometry" />
        </mxCell>
        <mxCell id="lNQzoHdhUG-K7HCVNhrf-39" value="" style="rounded=0;whiteSpace=wrap;html=1;" parent="1" vertex="1">
          <mxGeometry x="412.5" y="443" width="210" height="92" as="geometry" />
        </mxCell>
        <mxCell id="lNQzoHdhUG-K7HCVNhrf-40" value="A" style="text;html=1;strokeColor=none;fillColor=none;align=left;verticalAlign=middle;whiteSpace=wrap;rounded=0;" parent="1" vertex="1">
          <mxGeometry x="422.5" y="448" width="20" height="20" as="geometry" />
        </mxCell>
        <mxCell id="lNQzoHdhUG-K7HCVNhrf-41" value="P" style="text;html=1;strokeColor=none;fillColor=none;align=left;verticalAlign=middle;whiteSpace=wrap;rounded=0;" parent="1" vertex="1">
          <mxGeometry x="422.5" y="468" width="20" height="20" as="geometry" />
        </mxCell>
        <mxCell id="lNQzoHdhUG-K7HCVNhrf-42" value="&amp;nbsp;Mode" style="text;html=1;strokeColor=none;fillColor=none;align=left;verticalAlign=middle;whiteSpace=wrap;rounded=0;" parent="1" vertex="1">
          <mxGeometry x="413" y="488" width="39.5" height="20" as="geometry" />
        </mxCell>
        <mxCell id="lNQzoHdhUG-K7HCVNhrf-43" value="&lt;font style=&quot;font-size: 9px;&quot;&gt;Clk&lt;/font&gt;" style="text;html=1;strokeColor=none;fillColor=none;align=left;verticalAlign=middle;whiteSpace=wrap;rounded=0;" parent="1" vertex="1">
          <mxGeometry x="422.5" y="508" width="30" height="20" as="geometry" />
        </mxCell>
        <mxCell id="lNQzoHdhUG-K7HCVNhrf-82" style="edgeStyle=orthogonalEdgeStyle;rounded=0;orthogonalLoop=1;jettySize=auto;html=1;exitX=1;exitY=0.5;exitDx=0;exitDy=0;entryX=0.612;entryY=0.972;entryDx=0;entryDy=0;entryPerimeter=0;strokeColor=#6C8EBF;strokeWidth=2;" parent="1" source="lNQzoHdhUG-K7HCVNhrf-44" target="lNQzoHdhUG-K7HCVNhrf-77" edge="1">
          <mxGeometry relative="1" as="geometry">
            <mxPoint x="645" y="458" as="targetPoint" />
            <Array as="points">
              <mxPoint x="630" y="458" />
              <mxPoint x="630" y="468" />
            </Array>
          </mxGeometry>
        </mxCell>
        <mxCell id="lNQzoHdhUG-K7HCVNhrf-44" value="OUT" style="text;html=1;strokeColor=none;fillColor=none;align=left;verticalAlign=middle;whiteSpace=wrap;rounded=0;" parent="1" vertex="1">
          <mxGeometry x="585.5" y="448" width="37" height="20" as="geometry" />
        </mxCell>
        <mxCell id="lNQzoHdhUG-K7HCVNhrf-115" style="edgeStyle=orthogonalEdgeStyle;rounded=0;orthogonalLoop=1;jettySize=auto;html=1;exitX=1;exitY=0.5;exitDx=0;exitDy=0;entryX=0.75;entryY=0;entryDx=0;entryDy=0;fillColor=#f0a30a;strokeColor=#E49621;strokeWidth=2;" parent="1" source="lNQzoHdhUG-K7HCVNhrf-45" target="lNQzoHdhUG-K7HCVNhrf-18" edge="1">
          <mxGeometry relative="1" as="geometry">
            <Array as="points">
              <mxPoint x="644" y="518" />
              <mxPoint x="644" y="586" />
              <mxPoint x="630" y="586" />
            </Array>
          </mxGeometry>
        </mxCell>
        <mxCell id="lNQzoHdhUG-K7HCVNhrf-45" value="Status" style="text;html=1;strokeColor=none;fillColor=none;align=left;verticalAlign=middle;whiteSpace=wrap;rounded=0;" parent="1" vertex="1">
          <mxGeometry x="582.5" y="508" width="41" height="20" as="geometry" />
        </mxCell>
        <mxCell id="lNQzoHdhUG-K7HCVNhrf-46" value="Penjumlahan&lt;br&gt;Pengurangan" style="rounded=0;whiteSpace=wrap;html=1;dashed=1;" parent="1" vertex="1">
          <mxGeometry x="462.5" y="469" width="110" height="40" as="geometry" />
        </mxCell>
        <mxCell id="lNQzoHdhUG-K7HCVNhrf-69" value="&amp;nbsp;Q" style="text;html=1;strokeColor=none;fillColor=none;align=left;verticalAlign=middle;whiteSpace=wrap;rounded=0;" parent="1" vertex="1">
          <mxGeometry x="1032" y="484" width="60" height="30" as="geometry" />
        </mxCell>
        <mxCell id="lNQzoHdhUG-K7HCVNhrf-124" style="edgeStyle=orthogonalEdgeStyle;rounded=0;orthogonalLoop=1;jettySize=auto;html=1;exitX=1;exitY=0.5;exitDx=0;exitDy=0;entryX=0.099;entryY=0.532;entryDx=0;entryDy=0;strokeColor=#6EE723;strokeWidth=2;entryPerimeter=0;" parent="1" source="lNQzoHdhUG-K7HCVNhrf-70" target="__AVU1m3LIslnRQb0s9q-25" edge="1">
          <mxGeometry relative="1" as="geometry">
            <Array as="points">
              <mxPoint x="1334" y="502" />
              <mxPoint x="1334" y="776" />
              <mxPoint x="1079" y="776" />
              <mxPoint x="1079" y="824" />
              <mxPoint x="1117" y="824" />
            </Array>
          </mxGeometry>
        </mxCell>
        <mxCell id="lNQzoHdhUG-K7HCVNhrf-70" value="Q*" style="text;html=1;strokeColor=none;fillColor=none;align=right;verticalAlign=middle;whiteSpace=wrap;rounded=0;" parent="1" vertex="1">
          <mxGeometry x="1225.5" y="487" width="26.5" height="30" as="geometry" />
        </mxCell>
        <mxCell id="lNQzoHdhUG-K7HCVNhrf-71" value="Q-1" style="text;html=1;strokeColor=none;fillColor=none;align=right;verticalAlign=middle;whiteSpace=wrap;rounded=0;" parent="1" vertex="1">
          <mxGeometry x="1225.5" y="520.5" width="26.5" height="30" as="geometry" />
        </mxCell>
        <mxCell id="lNQzoHdhUG-K7HCVNhrf-77" value="" style="shape=trapezoid;perimeter=trapezoidPerimeter;whiteSpace=wrap;html=1;fixedSize=1;fontSize=16;direction=south;" parent="1" vertex="1">
          <mxGeometry x="646.5" y="415" width="22" height="87" as="geometry" />
        </mxCell>
        <mxCell id="GA_d8-ZdceQXuGu5nzfN-8" style="edgeStyle=orthogonalEdgeStyle;rounded=0;orthogonalLoop=1;jettySize=auto;html=1;exitX=0;exitY=0.5;exitDx=0;exitDy=0;entryX=0;entryY=0.5;entryDx=0;entryDy=0;strokeWidth=2;strokeColor=#6C8EBF;" parent="1" source="lNQzoHdhUG-K7HCVNhrf-78" target="GA_d8-ZdceQXuGu5nzfN-2" edge="1">
          <mxGeometry relative="1" as="geometry" />
        </mxCell>
        <mxCell id="lNQzoHdhUG-K7HCVNhrf-78" value="1&lt;br&gt;0" style="text;html=1;strokeColor=none;fillColor=none;align=center;verticalAlign=middle;whiteSpace=wrap;rounded=0;fontSize=16;direction=west;" parent="1" vertex="1">
          <mxGeometry x="649.5" y="432.5" width="18" height="49.5" as="geometry" />
        </mxCell>
        <mxCell id="lNQzoHdhUG-K7HCVNhrf-88" value="&lt;font style=&quot;font-size: 12px;&quot;&gt;LSB&lt;/font&gt;" style="text;html=1;strokeColor=none;fillColor=none;align=center;verticalAlign=middle;whiteSpace=wrap;rounded=0;" parent="1" vertex="1">
          <mxGeometry x="168" y="650.5" width="38" height="20" as="geometry" />
        </mxCell>
        <mxCell id="lNQzoHdhUG-K7HCVNhrf-93" value="&lt;font style=&quot;font-size: 12px;&quot;&gt;OUT&lt;/font&gt;" style="text;html=1;strokeColor=none;fillColor=none;align=center;verticalAlign=middle;whiteSpace=wrap;rounded=0;" parent="1" vertex="1">
          <mxGeometry x="80" y="472.5" width="38" height="20" as="geometry" />
        </mxCell>
        <mxCell id="lNQzoHdhUG-K7HCVNhrf-94" value="&lt;font style=&quot;font-size: 12px;&quot;&gt;LSB&lt;/font&gt;" style="text;html=1;strokeColor=none;fillColor=none;align=center;verticalAlign=middle;whiteSpace=wrap;rounded=0;" parent="1" vertex="1">
          <mxGeometry x="80" y="493.5" width="38" height="20" as="geometry" />
        </mxCell>
        <mxCell id="lNQzoHdhUG-K7HCVNhrf-99" style="edgeStyle=orthogonalEdgeStyle;rounded=0;orthogonalLoop=1;jettySize=auto;html=1;exitX=1;exitY=0.25;exitDx=0;exitDy=0;entryX=-0.002;entryY=0.391;entryDx=0;entryDy=0;entryPerimeter=0;strokeColor=#6C8EBF;strokeWidth=2;" parent="1" source="lNQzoHdhUG-K7HCVNhrf-93" target="lNQzoHdhUG-K7HCVNhrf-39" edge="1">
          <mxGeometry relative="1" as="geometry">
            <mxPoint x="355" y="510.5" as="sourcePoint" />
          </mxGeometry>
        </mxCell>
        <mxCell id="lNQzoHdhUG-K7HCVNhrf-110" value="S. Acc" style="text;html=1;strokeColor=none;fillColor=none;align=center;verticalAlign=middle;whiteSpace=wrap;rounded=0;" parent="1" vertex="1">
          <mxGeometry x="490" y="665" width="47" height="20" as="geometry" />
        </mxCell>
        <mxCell id="lNQzoHdhUG-K7HCVNhrf-112" style="edgeStyle=orthogonalEdgeStyle;rounded=0;orthogonalLoop=1;jettySize=auto;html=1;exitX=1;exitY=0.5;exitDx=0;exitDy=0;entryX=0.998;entryY=0.828;entryDx=0;entryDy=0;entryPerimeter=0;fillColor=#a0522d;strokeColor=#49e9c9;strokeWidth=2;" parent="1" source="lNQzoHdhUG-K7HCVNhrf-88" target="lNQzoHdhUG-K7HCVNhrf-18" edge="1">
          <mxGeometry relative="1" as="geometry">
            <Array as="points">
              <mxPoint x="330" y="661" />
              <mxPoint x="330" y="834" />
              <mxPoint x="708" y="834" />
              <mxPoint x="708" y="768" />
            </Array>
          </mxGeometry>
        </mxCell>
        <mxCell id="lNQzoHdhUG-K7HCVNhrf-121" value="Perkalian" style="swimlane;whiteSpace=wrap;html=1;strokeWidth=2;strokeColor=#6C8EBF;" parent="1" vertex="1">
          <mxGeometry x="-160" y="296" width="1512" height="601" as="geometry" />
        </mxCell>
        <mxCell id="lNQzoHdhUG-K7HCVNhrf-126" style="edgeStyle=orthogonalEdgeStyle;rounded=0;orthogonalLoop=1;jettySize=auto;html=1;exitX=1;exitY=0.25;exitDx=0;exitDy=0;strokeColor=#7d3636;strokeWidth=2;" parent="lNQzoHdhUG-K7HCVNhrf-121" source="lNQzoHdhUG-K7HCVNhrf-122" edge="1">
          <mxGeometry relative="1" as="geometry">
            <mxPoint x="1510.7435772235576" y="507.8717948717949" as="targetPoint" />
          </mxGeometry>
        </mxCell>
        <mxCell id="lNQzoHdhUG-K7HCVNhrf-127" style="edgeStyle=orthogonalEdgeStyle;rounded=0;orthogonalLoop=1;jettySize=auto;html=1;exitX=1;exitY=0.75;exitDx=0;exitDy=0;fillColor=#fa6800;strokeColor=#E49621;strokeWidth=2;" parent="lNQzoHdhUG-K7HCVNhrf-121" source="lNQzoHdhUG-K7HCVNhrf-122" edge="1">
          <mxGeometry relative="1" as="geometry">
            <mxPoint x="1511.5641401241987" y="542.2307692307693" as="targetPoint" />
          </mxGeometry>
        </mxCell>
        <mxCell id="lNQzoHdhUG-K7HCVNhrf-122" value="Output Finalization" style="rounded=0;whiteSpace=wrap;html=1;" parent="lNQzoHdhUG-K7HCVNhrf-121" vertex="1">
          <mxGeometry x="1276.5" y="491" width="165.5" height="68" as="geometry" />
        </mxCell>
        <mxCell id="__AVU1m3LIslnRQb0s9q-1" value="" style="endArrow=none;html=1;rounded=0;strokeColor=#EC3C3C;strokeWidth=2;" parent="lNQzoHdhUG-K7HCVNhrf-121" edge="1">
          <mxGeometry width="50" height="50" relative="1" as="geometry">
            <mxPoint x="427" y="524" as="sourcePoint" />
            <mxPoint x="451" y="500" as="targetPoint" />
          </mxGeometry>
        </mxCell>
        <mxCell id="__AVU1m3LIslnRQb0s9q-3" value="&lt;font color=&quot;#ec3c3c&quot;&gt;2 Bit&lt;/font&gt;" style="text;html=1;strokeColor=none;fillColor=none;align=center;verticalAlign=middle;whiteSpace=wrap;rounded=0;" parent="lNQzoHdhUG-K7HCVNhrf-121" vertex="1">
          <mxGeometry x="438" y="488" width="60" height="30" as="geometry" />
        </mxCell>
        <mxCell id="__AVU1m3LIslnRQb0s9q-14" value="Q&lt;sub&gt;-1&lt;/sub&gt;" style="text;html=1;strokeColor=none;fillColor=none;align=center;verticalAlign=middle;whiteSpace=wrap;rounded=0;" parent="lNQzoHdhUG-K7HCVNhrf-121" vertex="1">
          <mxGeometry x="822" y="431" width="29" height="30" as="geometry" />
        </mxCell>
        <mxCell id="__AVU1m3LIslnRQb0s9q-19" value="&lt;font color=&quot;#6832fb&quot;&gt;2 Bit&lt;/font&gt;" style="text;html=1;strokeColor=none;fillColor=none;align=center;verticalAlign=middle;whiteSpace=wrap;rounded=0;" parent="lNQzoHdhUG-K7HCVNhrf-121" vertex="1">
          <mxGeometry x="538" y="446" width="60" height="30" as="geometry" />
        </mxCell>
        <mxCell id="__AVU1m3LIslnRQb0s9q-20" value="&lt;font color=&quot;#6ee723&quot; style=&quot;font-size: 11px;&quot;&gt;41 Bit&lt;/font&gt;" style="text;html=1;strokeColor=none;fillColor=none;align=center;verticalAlign=middle;whiteSpace=wrap;rounded=0;fontColor=#6C8EBF;labelBackgroundColor=none;labelBorderColor=none;fontSize=11;fontStyle=1" parent="lNQzoHdhUG-K7HCVNhrf-121" vertex="1">
          <mxGeometry x="488" y="261" width="50" height="20" as="geometry" />
        </mxCell>
        <mxCell id="__AVU1m3LIslnRQb0s9q-21" value="" style="endArrow=none;html=1;rounded=0;fillColor=#dae8fc;strokeColor=#6EE723;strokeWidth=2;" parent="lNQzoHdhUG-K7HCVNhrf-121" edge="1">
          <mxGeometry width="50" height="50" relative="1" as="geometry">
            <mxPoint x="469" y="289" as="sourcePoint" />
            <mxPoint x="489" y="269" as="targetPoint" />
          </mxGeometry>
        </mxCell>
        <mxCell id="__AVU1m3LIslnRQb0s9q-24" value="A*" style="text;html=1;strokeColor=none;fillColor=none;align=right;verticalAlign=middle;whiteSpace=wrap;rounded=0;" parent="lNQzoHdhUG-K7HCVNhrf-121" vertex="1">
          <mxGeometry x="1271" y="491" width="26.5" height="30" as="geometry" />
        </mxCell>
        <mxCell id="__AVU1m3LIslnRQb0s9q-25" value="Q*" style="text;html=1;strokeColor=none;fillColor=none;align=right;verticalAlign=middle;whiteSpace=wrap;rounded=0;" parent="lNQzoHdhUG-K7HCVNhrf-121" vertex="1">
          <mxGeometry x="1274" y="513" width="26.5" height="30" as="geometry" />
        </mxCell>
        <mxCell id="__AVU1m3LIslnRQb0s9q-31" value="" style="endArrow=none;html=1;rounded=0;strokeColor=#7D3636;strokeWidth=2;entryX=0;entryY=0.5;entryDx=0;entryDy=0;" parent="lNQzoHdhUG-K7HCVNhrf-121" target="__AVU1m3LIslnRQb0s9q-32" edge="1">
          <mxGeometry width="50" height="50" relative="1" as="geometry">
            <mxPoint x="1452" y="515" as="sourcePoint" />
            <mxPoint x="1485" y="497" as="targetPoint" />
          </mxGeometry>
        </mxCell>
        <mxCell id="__AVU1m3LIslnRQb0s9q-32" value="&lt;b style=&quot;&quot;&gt;&lt;font color=&quot;#7d3636&quot;&gt;41 Bit&lt;/font&gt;&lt;/b&gt;" style="text;html=1;strokeColor=none;fillColor=none;align=center;verticalAlign=middle;whiteSpace=wrap;rounded=0;" parent="lNQzoHdhUG-K7HCVNhrf-121" vertex="1">
          <mxGeometry x="1466" y="484" width="37" height="29" as="geometry" />
        </mxCell>
        <mxCell id="__AVU1m3LIslnRQb0s9q-35" value="" style="endArrow=none;html=1;rounded=0;strokeColor=#E49621;strokeWidth=2;entryX=0;entryY=0.5;entryDx=0;entryDy=0;" parent="lNQzoHdhUG-K7HCVNhrf-121" target="__AVU1m3LIslnRQb0s9q-36" edge="1">
          <mxGeometry width="50" height="50" relative="1" as="geometry">
            <mxPoint x="1452" y="549" as="sourcePoint" />
            <mxPoint x="1485" y="531" as="targetPoint" />
          </mxGeometry>
        </mxCell>
        <mxCell id="__AVU1m3LIslnRQb0s9q-36" value="&lt;b style=&quot;&quot;&gt;&lt;font color=&quot;#e49621&quot;&gt;2 Bit&lt;/font&gt;&lt;/b&gt;" style="text;html=1;strokeColor=none;fillColor=none;align=center;verticalAlign=middle;whiteSpace=wrap;rounded=0;" parent="lNQzoHdhUG-K7HCVNhrf-121" vertex="1">
          <mxGeometry x="1469" y="518" width="34" height="29" as="geometry" />
        </mxCell>
        <mxCell id="__AVU1m3LIslnRQb0s9q-39" value="" style="endArrow=none;html=1;rounded=0;strokeColor=#6832FB;strokeWidth=2;" parent="lNQzoHdhUG-K7HCVNhrf-121" edge="1">
          <mxGeometry width="50" height="50" relative="1" as="geometry">
            <mxPoint x="540" y="386" as="sourcePoint" />
            <mxPoint x="564" y="358" as="targetPoint" />
          </mxGeometry>
        </mxCell>
        <mxCell id="lNQzoHdhUG-K7HCVNhrf-72" style="edgeStyle=orthogonalEdgeStyle;rounded=0;orthogonalLoop=1;jettySize=auto;html=1;exitX=1;exitY=0.5;exitDx=0;exitDy=0;entryX=1;entryY=0.25;entryDx=0;entryDy=0;strokeColor=#CC00CC;strokeWidth=2;" parent="lNQzoHdhUG-K7HCVNhrf-121" edge="1">
          <mxGeometry relative="1" as="geometry">
            <Array as="points">
              <mxPoint x="1412" y="240" />
              <mxPoint x="1432" y="240" />
              <mxPoint x="1432" y="306" />
              <mxPoint x="1320" y="306" />
              <mxPoint x="1320" y="435" />
              <mxPoint x="935" y="435" />
              <mxPoint x="935" y="446" />
            </Array>
            <mxPoint x="1412" y="247" as="sourcePoint" />
            <mxPoint x="851.0000000000002" y="446" as="targetPoint" />
          </mxGeometry>
        </mxCell>
        <mxCell id="PV_D348rSCgltFJsSPL3-10" value="" style="endArrow=none;html=1;rounded=0;strokeColor=#6C8EBF;strokeWidth=2;" parent="lNQzoHdhUG-K7HCVNhrf-121" edge="1">
          <mxGeometry width="50" height="50" relative="1" as="geometry">
            <mxPoint x="790" y="110" as="sourcePoint" />
            <mxPoint x="507" y="110" as="targetPoint" />
          </mxGeometry>
        </mxCell>
        <mxCell id="PV_D348rSCgltFJsSPL3-15" value="" style="shape=trapezoid;perimeter=trapezoidPerimeter;whiteSpace=wrap;html=1;fixedSize=1;fontSize=16;direction=south;" parent="lNQzoHdhUG-K7HCVNhrf-121" vertex="1">
          <mxGeometry x="113" y="294" width="22" height="87" as="geometry" />
        </mxCell>
        <mxCell id="PV_D348rSCgltFJsSPL3-16" value="1&lt;br&gt;0" style="text;html=1;strokeColor=none;fillColor=none;align=center;verticalAlign=middle;whiteSpace=wrap;rounded=0;fontSize=16;direction=west;" parent="lNQzoHdhUG-K7HCVNhrf-121" vertex="1">
          <mxGeometry x="116" y="311.5" width="18" height="49.5" as="geometry" />
        </mxCell>
        <mxCell id="lNQzoHdhUG-K7HCVNhrf-79" style="edgeStyle=orthogonalEdgeStyle;rounded=0;orthogonalLoop=1;jettySize=auto;html=1;exitX=1;exitY=0.5;exitDx=0;exitDy=0;strokeColor=#6EE723;strokeWidth=2;entryX=1.191;entryY=0.658;entryDx=0;entryDy=0;entryPerimeter=0;" parent="lNQzoHdhUG-K7HCVNhrf-121" target="PV_D348rSCgltFJsSPL3-16" edge="1">
          <mxGeometry relative="1" as="geometry">
            <Array as="points">
              <mxPoint x="1452" y="206" />
              <mxPoint x="1452" y="279" />
              <mxPoint x="81" y="279" />
              <mxPoint x="81" y="329" />
              <mxPoint x="104" y="329" />
            </Array>
            <mxPoint x="1413.04" y="206" as="sourcePoint" />
            <mxPoint x="132.03399999999988" y="357.93000000000006" as="targetPoint" />
          </mxGeometry>
        </mxCell>
        <mxCell id="M9DNY0lkbTjcuEkdmHyS-6" style="edgeStyle=orthogonalEdgeStyle;rounded=0;orthogonalLoop=1;jettySize=auto;html=1;fillColor=#60a917;strokeColor=#6EE723;strokeWidth=2;" parent="lNQzoHdhUG-K7HCVNhrf-121" edge="1">
          <mxGeometry relative="1" as="geometry">
            <Array as="points">
              <mxPoint y="99" />
              <mxPoint x="30" y="99" />
              <mxPoint x="30" y="346" />
            </Array>
            <mxPoint y="102" as="sourcePoint" />
            <mxPoint x="114" y="346" as="targetPoint" />
          </mxGeometry>
        </mxCell>
        <mxCell id="lNQzoHdhUG-K7HCVNhrf-117" style="edgeStyle=orthogonalEdgeStyle;rounded=0;orthogonalLoop=1;jettySize=auto;html=1;exitX=1;exitY=0.25;exitDx=0;exitDy=0;entryX=0;entryY=0.5;entryDx=0;entryDy=0;fillColor=#f0a30a;strokeColor=#E49621;strokeWidth=2;" parent="lNQzoHdhUG-K7HCVNhrf-121" target="lNQzoHdhUG-K7HCVNhrf-27" edge="1">
          <mxGeometry relative="1" as="geometry">
            <Array as="points">
              <mxPoint x="1131" y="388" />
              <mxPoint x="1131" y="224" />
            </Array>
            <mxPoint x="851" y="388.4899999999999" as="sourcePoint" />
            <mxPoint x="1195" y="212.49" as="targetPoint" />
          </mxGeometry>
        </mxCell>
        <mxCell id="PV_D348rSCgltFJsSPL3-21" value="EnFinal" style="text;html=1;strokeColor=none;fillColor=none;align=right;verticalAlign=middle;whiteSpace=wrap;rounded=0;" parent="lNQzoHdhUG-K7HCVNhrf-121" vertex="1">
          <mxGeometry x="1350" y="535" width="26.5" height="30" as="geometry" />
        </mxCell>
        <mxCell id="GA_d8-ZdceQXuGu5nzfN-1" value="" style="rounded=0;whiteSpace=wrap;html=1;" parent="lNQzoHdhUG-K7HCVNhrf-121" vertex="1">
          <mxGeometry x="900" y="141" width="200" height="70" as="geometry" />
        </mxCell>
        <mxCell id="GA_d8-ZdceQXuGu5nzfN-2" value="&lt;font style=&quot;font-size: 12px;&quot;&gt;IN&lt;/font&gt;" style="text;html=1;strokeColor=none;fillColor=none;align=center;verticalAlign=middle;whiteSpace=wrap;rounded=0;" parent="lNQzoHdhUG-K7HCVNhrf-121" vertex="1">
          <mxGeometry x="905" y="149" width="20" height="20" as="geometry" />
        </mxCell>
        <mxCell id="GA_d8-ZdceQXuGu5nzfN-3" value="&lt;font style=&quot;font-size: 12px;&quot;&gt;OUT&lt;/font&gt;" style="text;html=1;strokeColor=none;fillColor=none;align=center;verticalAlign=middle;whiteSpace=wrap;rounded=0;" parent="lNQzoHdhUG-K7HCVNhrf-121" vertex="1">
          <mxGeometry x="1062" y="155.5" width="38" height="20" as="geometry" />
        </mxCell>
        <mxCell id="GA_d8-ZdceQXuGu5nzfN-4" value="&lt;font style=&quot;font-size: 12px;&quot;&gt;CT&lt;/font&gt;" style="text;html=1;strokeColor=none;fillColor=none;align=center;verticalAlign=middle;whiteSpace=wrap;rounded=0;" parent="lNQzoHdhUG-K7HCVNhrf-121" vertex="1">
          <mxGeometry x="905" y="169" width="20" height="20" as="geometry" />
        </mxCell>
        <mxCell id="GA_d8-ZdceQXuGu5nzfN-5" value="REG A" style="text;html=1;strokeColor=default;fillColor=none;align=center;verticalAlign=middle;whiteSpace=wrap;rounded=0;dashed=1;" parent="lNQzoHdhUG-K7HCVNhrf-121" vertex="1">
          <mxGeometry x="947.5" y="161" width="105" height="30" as="geometry" />
        </mxCell>
        <mxCell id="GA_d8-ZdceQXuGu5nzfN-6" value="&lt;font style=&quot;font-size: 8px;&quot;&gt;Clk&lt;/font&gt;" style="text;html=1;strokeColor=none;fillColor=none;align=center;verticalAlign=middle;whiteSpace=wrap;rounded=0;" parent="lNQzoHdhUG-K7HCVNhrf-121" vertex="1">
          <mxGeometry x="905" y="189" width="20" height="15" as="geometry" />
        </mxCell>
        <mxCell id="GA_d8-ZdceQXuGu5nzfN-7" value="&lt;font style=&quot;font-size: 12px;&quot;&gt;LSB&lt;/font&gt;" style="text;html=1;strokeColor=none;fillColor=none;align=center;verticalAlign=middle;whiteSpace=wrap;rounded=0;" parent="lNQzoHdhUG-K7HCVNhrf-121" vertex="1">
          <mxGeometry x="1062" y="176.5" width="38" height="20" as="geometry" />
        </mxCell>
        <mxCell id="GA_d8-ZdceQXuGu5nzfN-11" value="Ct. A" style="text;html=1;strokeColor=none;fillColor=none;align=center;verticalAlign=middle;whiteSpace=wrap;rounded=0;" parent="lNQzoHdhUG-K7HCVNhrf-121" vertex="1">
          <mxGeometry x="754" y="471" width="47" height="20" as="geometry" />
        </mxCell>
        <mxCell id="8z1dHCdvGNLMDlsCaGqG-1" value="S1" style="text;html=1;strokeColor=none;fillColor=none;align=center;verticalAlign=middle;whiteSpace=wrap;rounded=0;" vertex="1" parent="lNQzoHdhUG-K7HCVNhrf-121">
          <mxGeometry x="707" y="373" width="47" height="20" as="geometry" />
        </mxCell>
        <mxCell id="8z1dHCdvGNLMDlsCaGqG-2" style="edgeStyle=orthogonalEdgeStyle;rounded=0;orthogonalLoop=1;jettySize=auto;html=1;exitX=0.5;exitY=0;exitDx=0;exitDy=0;entryX=0;entryY=0.5;entryDx=0;entryDy=0;" edge="1" parent="lNQzoHdhUG-K7HCVNhrf-121">
          <mxGeometry relative="1" as="geometry">
            <mxPoint x="731" y="373" as="sourcePoint" />
            <mxPoint x="124" y="308" as="targetPoint" />
            <Array as="points">
              <mxPoint x="731" y="286" />
              <mxPoint x="124" y="286" />
            </Array>
          </mxGeometry>
        </mxCell>
        <mxCell id="M9DNY0lkbTjcuEkdmHyS-1" value="Q" style="text;html=1;strokeColor=none;fillColor=none;align=right;verticalAlign=middle;whiteSpace=wrap;rounded=0;" parent="1" vertex="1">
          <mxGeometry x="-222" y="379" width="60" height="30" as="geometry" />
        </mxCell>
        <mxCell id="M9DNY0lkbTjcuEkdmHyS-5" style="edgeStyle=orthogonalEdgeStyle;rounded=0;orthogonalLoop=1;jettySize=auto;html=1;exitX=1;exitY=0.5;exitDx=0;exitDy=0;entryX=0;entryY=0.25;entryDx=0;entryDy=0;fillColor=#1ba1e2;strokeColor=#6C8EBF;strokeWidth=2;" parent="1" source="M9DNY0lkbTjcuEkdmHyS-2" target="lNQzoHdhUG-K7HCVNhrf-1" edge="1">
          <mxGeometry relative="1" as="geometry" />
        </mxCell>
        <mxCell id="M9DNY0lkbTjcuEkdmHyS-2" value="P" style="text;html=1;strokeColor=none;fillColor=none;align=right;verticalAlign=middle;whiteSpace=wrap;rounded=0;" parent="1" vertex="1">
          <mxGeometry x="-222" y="339" width="60" height="30" as="geometry" />
        </mxCell>
        <mxCell id="M9DNY0lkbTjcuEkdmHyS-3" value="Mode" style="text;html=1;strokeColor=none;fillColor=none;align=right;verticalAlign=middle;whiteSpace=wrap;rounded=0;" parent="1" vertex="1">
          <mxGeometry x="-222" y="414" width="60" height="30" as="geometry" />
        </mxCell>
        <mxCell id="M9DNY0lkbTjcuEkdmHyS-4" value="Clk" style="text;html=1;strokeColor=none;fillColor=none;align=right;verticalAlign=middle;whiteSpace=wrap;rounded=0;" parent="1" vertex="1">
          <mxGeometry x="-220" y="446.5" width="60" height="30" as="geometry" />
        </mxCell>
        <mxCell id="M9DNY0lkbTjcuEkdmHyS-7" style="edgeStyle=orthogonalEdgeStyle;rounded=0;orthogonalLoop=1;jettySize=auto;html=1;exitX=1;exitY=0.5;exitDx=0;exitDy=0;entryX=0.002;entryY=0.81;entryDx=0;entryDy=0;entryPerimeter=0;fillColor=#6a00ff;strokeColor=#6832fb;strokeWidth=2;" parent="1" source="M9DNY0lkbTjcuEkdmHyS-3" target="lNQzoHdhUG-K7HCVNhrf-18" edge="1">
          <mxGeometry relative="1" as="geometry">
            <Array as="points">
              <mxPoint x="-147" y="429" />
              <mxPoint x="-147" y="765" />
            </Array>
          </mxGeometry>
        </mxCell>
        <mxCell id="M9DNY0lkbTjcuEkdmHyS-8" value="Mode" style="text;html=1;strokeColor=none;fillColor=none;align=center;verticalAlign=middle;whiteSpace=wrap;rounded=0;" parent="1" vertex="1">
          <mxGeometry x="454" y="754" width="47" height="20" as="geometry" />
        </mxCell>
        <mxCell id="M9DNY0lkbTjcuEkdmHyS-9" value="Out" style="text;html=1;strokeColor=none;fillColor=none;align=left;verticalAlign=middle;whiteSpace=wrap;rounded=0;" parent="1" vertex="1">
          <mxGeometry x="1357" y="789" width="60" height="30" as="geometry" />
        </mxCell>
        <mxCell id="M9DNY0lkbTjcuEkdmHyS-10" value="Status" style="text;html=1;strokeColor=none;fillColor=none;align=left;verticalAlign=middle;whiteSpace=wrap;rounded=0;" parent="1" vertex="1">
          <mxGeometry x="1357" y="823" width="60" height="30" as="geometry" />
        </mxCell>
        <mxCell id="PV_D348rSCgltFJsSPL3-19" style="edgeStyle=orthogonalEdgeStyle;rounded=0;orthogonalLoop=1;jettySize=auto;html=1;exitX=1;exitY=1;exitDx=0;exitDy=0;strokeColor=#E49621;strokeWidth=2;" parent="1" source="__AVU1m3LIslnRQb0s9q-7" edge="1">
          <mxGeometry relative="1" as="geometry">
            <mxPoint x="1200" y="859" as="targetPoint" />
            <Array as="points">
              <mxPoint x="688" y="709" />
              <mxPoint x="811" y="709" />
              <mxPoint x="811" y="878" />
              <mxPoint x="1200" y="878" />
            </Array>
          </mxGeometry>
        </mxCell>
        <mxCell id="__AVU1m3LIslnRQb0s9q-7" value="En" style="text;html=1;strokeColor=none;fillColor=none;align=left;verticalAlign=middle;whiteSpace=wrap;rounded=0;" parent="1" vertex="1">
          <mxGeometry x="665" y="668" width="23" height="30" as="geometry" />
        </mxCell>
        <mxCell id="__AVU1m3LIslnRQb0s9q-15" value="Q&lt;sub&gt;LSB&lt;/sub&gt;" style="text;html=1;strokeColor=none;fillColor=none;align=center;verticalAlign=middle;whiteSpace=wrap;rounded=0;" parent="1" vertex="1">
          <mxGeometry x="652" y="751" width="36" height="30" as="geometry" />
        </mxCell>
        <mxCell id="__AVU1m3LIslnRQb0s9q-18" value="" style="endArrow=none;html=1;rounded=0;strokeColor=#6832FB;strokeWidth=2;" parent="1" edge="1">
          <mxGeometry width="50" height="50" relative="1" as="geometry">
            <mxPoint x="369" y="777" as="sourcePoint" />
            <mxPoint x="393" y="749" as="targetPoint" />
          </mxGeometry>
        </mxCell>
        <mxCell id="PV_D348rSCgltFJsSPL3-13" value="" style="endArrow=none;html=1;rounded=0;strokeColor=#6C8EBF;strokeWidth=2;" parent="1" edge="1">
          <mxGeometry width="50" height="50" relative="1" as="geometry">
            <mxPoint x="347" y="458" as="sourcePoint" />
            <mxPoint x="347" y="407" as="targetPoint" />
          </mxGeometry>
        </mxCell>
        <mxCell id="PV_D348rSCgltFJsSPL3-14" value="" style="endArrow=classic;html=1;rounded=0;entryX=-0.006;entryY=0.165;entryDx=0;entryDy=0;entryPerimeter=0;strokeColor=#6C8EBF;strokeWidth=2;" parent="1" target="lNQzoHdhUG-K7HCVNhrf-39" edge="1">
          <mxGeometry width="50" height="50" relative="1" as="geometry">
            <mxPoint x="346" y="458" as="sourcePoint" />
            <mxPoint x="550" y="392" as="targetPoint" />
          </mxGeometry>
        </mxCell>
        <mxCell id="PV_D348rSCgltFJsSPL3-17" value="" style="endArrow=classic;html=1;rounded=0;exitX=0;exitY=0.5;exitDx=0;exitDy=0;entryX=0;entryY=0.25;entryDx=0;entryDy=0;strokeColor=#6EE723;strokeWidth=2;" parent="1" source="PV_D348rSCgltFJsSPL3-16" target="lNQzoHdhUG-K7HCVNhrf-11" edge="1">
          <mxGeometry width="50" height="50" relative="1" as="geometry">
            <mxPoint x="1" y="611" as="sourcePoint" />
            <mxPoint x="51" y="561" as="targetPoint" />
          </mxGeometry>
        </mxCell>
        <mxCell id="PV_D348rSCgltFJsSPL3-20" value="EnFinal" style="text;html=1;strokeColor=none;fillColor=none;align=left;verticalAlign=middle;whiteSpace=wrap;rounded=0;" parent="1" vertex="1">
          <mxGeometry x="642" y="695" width="23" height="30" as="geometry" />
        </mxCell>
        <mxCell id="PV_D348rSCgltFJsSPL3-22" value="Ct. Q" style="text;html=1;strokeColor=none;fillColor=none;align=center;verticalAlign=middle;whiteSpace=wrap;rounded=0;rotation=90;direction=east;" parent="1" vertex="1">
          <mxGeometry x="487" y="772" width="47" height="20" as="geometry" />
        </mxCell>
        <mxCell id="PV_D348rSCgltFJsSPL3-23" value="Ct. P" style="text;html=1;strokeColor=none;fillColor=none;align=center;verticalAlign=middle;whiteSpace=wrap;rounded=0;" parent="1" vertex="1">
          <mxGeometry x="543" y="769" width="47" height="20" as="geometry" />
        </mxCell>
        <mxCell id="GA_d8-ZdceQXuGu5nzfN-10" style="edgeStyle=orthogonalEdgeStyle;rounded=0;orthogonalLoop=1;jettySize=auto;html=1;exitX=1;exitY=0.25;exitDx=0;exitDy=0;entryX=0;entryY=0.5;entryDx=0;entryDy=0;strokeColor=#6C8EBF;strokeWidth=2;" parent="1" source="GA_d8-ZdceQXuGu5nzfN-1" target="lNQzoHdhUG-K7HCVNhrf-28" edge="1">
          <mxGeometry relative="1" as="geometry" />
        </mxCell>
        <mxCell id="GA_d8-ZdceQXuGu5nzfN-13" value="&lt;span style=&quot;color: rgb(240, 240, 240); font-family: Helvetica; font-size: 12px; font-style: normal; font-variant-ligatures: normal; font-variant-caps: normal; font-weight: 400; letter-spacing: normal; orphans: 2; text-align: center; text-indent: 0px; text-transform: none; widows: 2; word-spacing: 0px; -webkit-text-stroke-width: 0px; background-color: rgb(24, 20, 29); text-decoration-thickness: initial; text-decoration-style: initial; text-decoration-color: initial; float: none; display: inline !important;&quot;&gt;Mode Add/Sub&lt;/span&gt;" style="text;whiteSpace=wrap;html=1;" parent="1" vertex="1">
          <mxGeometry x="458.99993896484375" y="715" width="58" height="36" as="geometry" />
        </mxCell>
      </root>
    </mxGraphModel>
  </diagram>
</mxfile>
